<?xml version="1.0" encoding="UTF-8"?>
<svg xmlns="http://www.w3.org/2000/svg" xmlns:xlink="http://www.w3.org/1999/xlink" width="150px" height="150px" viewBox="0 0 150 150" version="1.1">
<g id="surface1">
<path style=" stroke:none;fill-rule:nonzero;fill:rgb(0%,0%,0%);fill-opacity:1;" d="M 88.320312 74.339844 C 86.65625 76.671875 87.382812 80.910156 87.382812 80.910156 C 87.382812 80.910156 87.871094 83.632812 88.890625 83.671875 C 89.566406 83.671875 88.238281 78.285156 89.144531 76.710938 C 89.21875 76.574219 89.398438 76.550781 89.511719 76.648438 C 89.917969 77.023438 91.050781 77.835938 93.089844 77.691406 C 95.160156 77.542969 95.625 76.109375 95.722656 75.496094 C 95.746094 75.335938 95.910156 75.234375 96.058594 75.277344 C 96.375 75.367188 96.929688 75.585938 97.800781 76.148438 C 99.253906 77.09375 99.636719 75.945312 99.636719 75.945312 C 99.636719 75.945312 99.890625 75.539062 98.84375 74.894531 C 97.792969 74.25 95.476562 73.566406 93.171875 73.898438 C 90.871094 74.226562 89.851562 75.609375 89.851562 75.609375 C 89.851562 75.609375 90.800781 73.359375 94.613281 72.765625 C 98.421875 72.171875 100.164062 72.800781 100.679688 72.765625 C 101.199219 72.726562 101.558594 72.726562 101.601562 71.714844 C 101.648438 70.703125 101.566406 68.902344 97.808594 68.902344 C 94.066406 68.902344 89.984375 72.007812 88.320312 74.339844 Z M 88.320312 74.339844 "/>
<path style=" stroke:none;fill-rule:nonzero;fill:rgb(0%,0%,0%);fill-opacity:1;" d="M 76.769531 71.296875 C 75.503906 71.714844 70.222656 72.328125 70.222656 72.328125 C 70.222656 72.328125 68.65625 72.539062 67.238281 72.710938 C 65.820312 72.886719 64.734375 73.441406 63.140625 74.363281 C 61.550781 75.285156 59.789062 77.234375 60.652344 77.371094 C 61.515625 77.503906 62.984375 77.003906 64.117188 76.738281 C 65.25 76.46875 66.667969 76.261719 69.171875 76.050781 C 70.566406 75.929688 71.300781 76.035156 71.675781 76.140625 C 71.804688 76.175781 71.8125 76.363281 71.675781 76.410156 C 70.980469 76.640625 69.75 77.308594 68.386719 77.910156 C 67.613281 78.253906 66.058594 78.816406 64.640625 79.320312 C 63.929688 79.566406 64.066406 80.609375 64.816406 80.683594 C 66.675781 80.859375 68.773438 81.039062 69.464844 81.039062 C 70.785156 81.039062 72.699219 80.976562 73.101562 80.40625 C 73.507812 79.828125 73.3125 78.585938 73.621094 77.976562 C 73.925781 77.363281 74.59375 77.804688 74.59375 77.804688 C 74.59375 77.804688 75.742188 78.578125 76.394531 79.15625 C 77.046875 79.734375 77.398438 80.191406 77.992188 79.476562 C 78.578125 78.765625 77.773438 78.300781 77.773438 78.300781 L 74.210938 75.976562 C 74.039062 75.863281 74.121094 75.601562 74.324219 75.601562 C 75.148438 75.601562 76.492188 75.585938 77.085938 75.53125 C 77.960938 75.457031 79.5 74.421875 79.34375 72.660156 C 79.183594 70.875 78.039062 70.875 76.769531 71.296875 Z M 76.769531 71.296875 "/>
<path style=" stroke:none;fill-rule:nonzero;fill:rgb(0%,0%,0%);fill-opacity:1;" d="M 73.035156 81.953125 C 71.871094 82.507812 71.109375 83.332031 71.324219 83.78125 C 71.542969 84.234375 72.660156 84.148438 73.824219 83.585938 C 74.984375 83.03125 75.75 82.207031 75.53125 81.757812 C 75.316406 81.308594 74.199219 81.390625 73.035156 81.953125 Z M 73.035156 81.953125 "/>
<path style=" stroke:none;fill-rule:nonzero;fill:rgb(0%,0%,0%);fill-opacity:1;" d="M 107.714844 46.824219 C 107.371094 46.746094 106.304688 48.007812 106.304688 48.007812 C 106.304688 48.007812 106.492188 38.886719 106.359375 36.503906 C 106.34375 36.269531 106.109375 36.113281 105.890625 36.1875 C 105.421875 36.359375 104.648438 36.40625 104.265625 35.21875 C 103.6875 33.421875 102.503906 30.929688 102.15625 30.546875 C 102.15625 30.546875 100.320312 27.789062 99.824219 27.710938 C 99.328125 27.636719 99.292969 28.636719 98.640625 28.171875 C 97.988281 27.710938 97.640625 25.605469 96.800781 25.53125 C 95.960938 25.453125 95.453125 26.617188 95.039062 26.664062 C 94.636719 26.714844 95.144531 24.976562 94.808594 24.570312 C 94.476562 24.164062 91.589844 25.15625 91.640625 24.570312 C 91.695312 23.984375 92.460938 22.703125 91.972656 21.914062 C 91.484375 21.121094 89.496094 21.097656 87.863281 22.191406 C 87.863281 22.191406 86.625 23.0625 86.332031 23.0625 C 86.039062 23.0625 85.492188 21.914062 84.570312 21.839844 C 83.648438 21.765625 83.828125 19.3125 82.753906 19.132812 C 81.683594 18.953125 81.734375 19.695312 81.375 19.925781 C 81.015625 20.160156 79.769531 19.417969 79.027344 18.652344 C 78.285156 17.886719 77.675781 17.429688 77.011719 17.453125 C 76.34375 17.476562 76.753906 18.78125 76.214844 18.886719 C 75.675781 18.988281 73.019531 16.636719 71.085938 16.636719 C 69.148438 16.636719 69.808594 18.066406 69.523438 18.292969 C 69.246094 18.523438 67.433594 16.6875 66.433594 16.425781 C 65.4375 16.164062 66.285156 19.386719 65.746094 19.664062 C 65.210938 19.941406 62.199219 17.160156 60.253906 17.210938 C 58.3125 17.265625 58.109375 18.234375 58.621094 18.816406 C 59.128906 19.402344 59.96875 20.78125 59.585938 20.960938 C 59.203125 21.140625 57.675781 19.761719 57.039062 19.304688 C 56.398438 18.847656 55.558594 18.285156 54.660156 18.539062 C 53.761719 18.796875 53.765625 20.707031 53.765625 20.707031 C 53.765625 20.707031 52.546875 19.613281 51.699219 19.816406 C 50.859375 20.015625 50.242188 23.820312 50.242188 23.820312 C 50.242188 23.820312 47.585938 20.675781 46.441406 20.753906 C 45.292969 20.828125 45.421875 24.609375 45.421875 24.609375 C 45.421875 24.609375 41.617188 22.71875 39.113281 23.152344 C 36.609375 23.585938 38.730469 25.191406 38.730469 25.191406 L 40.597656 26.796875 C 40.597656 26.796875 36.511719 26.289062 36.359375 27.613281 C 36.210938 28.941406 37.199219 29.398438 36.945312 30.683594 C 36.691406 31.957031 36.488281 32.519531 35.542969 32.160156 C 34.597656 31.800781 32.8125 31.191406 32.835938 32.925781 C 32.859375 34.65625 33.066406 37.777344 33.066406 37.777344 L 30.488281 37.5 C 30.488281 37.5 30.945312 41.429688 30.667969 41.789062 C 30.390625 42.148438 28.828125 41.917969 28.828125 41.917969 L 28.828125 43.800781 C 28.828125 43.800781 27.382812 43.800781 27.324219 45.121094 C 27.261719 46.441406 28.246094 48.140625 28.738281 48.414062 C 28.738281 48.414062 26.941406 47.992188 25.828125 48.261719 C 24.71875 48.53125 24.609375 49.484375 25.140625 50.257812 C 25.671875 51.023438 27.78125 54.050781 27.78125 54.511719 C 27.78125 54.96875 26.226562 54.140625 25.078125 54.203125 C 23.933594 54.261719 22.964844 57.59375 25.539062 59.835938 C 28.109375 62.078125 27.78125 62.191406 27.78125 62.191406 C 27.78125 62.191406 25.363281 61.957031 25.484375 63.050781 C 25.597656 64.148438 28.394531 65.8125 28.117188 66.328125 C 27.839844 66.847656 25.597656 66.21875 25.597656 67.019531 C 25.597656 67.824219 25.828125 69.929688 27.71875 71.0625 C 27.71875 71.0625 26.917969 71.445312 26.683594 72.308594 C 26.453125 73.171875 30.261719 79.949219 30.1875 81.898438 C 30.113281 83.851562 30.53125 85.84375 31.566406 86.953125 C 32.601562 88.066406 33.328125 88.90625 33.328125 89.519531 C 33.328125 90.136719 34.550781 91.664062 36.203125 92.738281 C 37.851562 93.808594 39.308594 94.648438 39.308594 94.648438 C 39.308594 94.648438 40.148438 95.183594 40.800781 95.226562 C 41.453125 95.265625 41.601562 95.339844 42.488281 95.992188 C 43.363281 96.644531 44.363281 97.640625 44.941406 97.792969 C 45.515625 97.941406 45.359375 98.289062 44.941406 99.097656 C 44.601562 99.734375 44.601562 100.664062 44.617188 101.371094 C 44.625 101.984375 44.746094 102.613281 45.074219 103.132812 C 45.34375 103.558594 45.742188 103.890625 46.164062 104.160156 C 47.183594 104.8125 48.292969 104.976562 49.460938 105.046875 C 50.039062 107.664062 51.246094 110.371094 53.136719 113.257812 C 55.664062 117.128906 59.167969 119.183594 59.308594 119.265625 L 59.332031 119.28125 L 69.621094 124.273438 L 70.035156 124.433594 C 70.972656 125.046875 72.238281 126.058594 72.929688 126.621094 C 73.261719 126.890625 73.664062 127.050781 74.085938 127.074219 L 74.941406 127.125 C 75.105469 127.132812 75.269531 127.171875 75.425781 127.230469 C 77.078125 127.875 86.941406 131.730469 88.101562 131.65625 C 89.371094 131.578125 90.246094 130.582031 90.246094 130.582031 C 90.246094 130.582031 92.296875 128.453125 93.96875 126.734375 C 96.277344 124.640625 98.789062 122.339844 100.074219 121.074219 C 100.515625 120.683594 100.859375 120.359375 101.046875 120.171875 C 101.773438 119.40625 102.195312 117.496094 102.464844 115.882812 C 102.488281 115.769531 102.503906 115.648438 102.515625 115.53125 C 102.652344 114.921875 102.796875 114.234375 102.945312 113.453125 C 103.296875 111.570312 103.828125 109.71875 104.527344 107.953125 L 106.34375 103.351562 L 106.351562 103.328125 C 106.898438 101.8125 107.160156 100.222656 107.128906 98.59375 C 106.949219 88.3125 104.535156 73.085938 104.511719 72.9375 C 104.453125 72.5625 103.539062 66.699219 102.503906 61.34375 C 103.761719 59.691406 106.433594 56.003906 107.414062 53.144531 C 108.710938 49.351562 108.058594 46.898438 107.714844 46.824219 Z M 45.21875 95.878906 C 43.914062 94.921875 41.578125 92.167969 40.925781 89.714844 C 40.273438 87.261719 39.128906 81.75 39.324219 78.988281 C 39.324219 78.988281 39.398438 78.375 39.691406 78.375 C 39.976562 78.375 40.222656 79.253906 40.171875 81.480469 C 40.109375 83.699219 40.265625 86.347656 42.523438 86.671875 C 42.523438 86.671875 42.546875 89.199219 43.253906 90.171875 C 43.957031 91.148438 45.359375 93.140625 46.53125 92.339844 C 47.699219 91.539062 44.828125 89.8125 44.578125 88.664062 C 44.332031 87.515625 44.730469 86.308594 45.40625 85.621094 C 46.011719 84.996094 47.828125 84.90625 48.449219 87.15625 C 48.496094 88.597656 48.644531 92.722656 48.808594 96.503906 C 47.953125 96.5625 46.191406 96.601562 45.21875 95.878906 Z M 42.21875 79.164062 C 43.011719 79.34375 44.949219 81.871094 44.722656 83.015625 C 44.488281 84.164062 42.652344 85.800781 42.652344 85.800781 L 41.960938 81.40625 C 41.960938 81.40625 41.421875 78.984375 42.21875 79.164062 Z M 48.164062 100.183594 C 47.941406 100.183594 47.761719 99.871094 47.761719 99.480469 C 47.761719 99.089844 47.941406 98.773438 48.164062 98.773438 C 48.390625 98.773438 48.570312 99.089844 48.570312 99.480469 C 48.5625 99.863281 48.382812 100.183594 48.164062 100.183594 Z M 87.039062 105.914062 C 90.328125 105.914062 92.933594 103.898438 93.988281 102.9375 C 94.246094 102.703125 94.65625 102.816406 94.761719 103.148438 C 95.804688 106.46875 96.140625 113.054688 96.21875 115.003906 C 96.234375 115.359375 96.082031 115.695312 95.804688 115.921875 L 92.332031 118.761719 C 92.144531 118.914062 91.867188 118.875 91.738281 118.671875 C 91.507812 118.328125 91.15625 117.75 90.855469 117.015625 C 90.34375 115.792969 89.578125 113.671875 87.816406 113.671875 C 86.054688 113.671875 85.417969 115.613281 85.417969 115.613281 L 84.023438 120.121094 C 83.941406 120.390625 83.625 120.515625 83.371094 120.382812 L 76.265625 116.414062 C 76.027344 116.28125 75.878906 116.03125 75.871094 115.761719 C 75.773438 112.851562 74.316406 105.324219 74.289062 105.148438 C 76.171875 105.148438 82.710938 105.914062 87.039062 105.914062 Z M 77.324219 103.648438 C 77.324219 103.550781 77.527344 103.46875 77.773438 103.46875 C 78.023438 103.46875 78.226562 103.550781 78.226562 103.648438 C 78.226562 103.746094 78.023438 103.828125 77.773438 103.828125 C 77.527344 103.828125 77.324219 103.746094 77.324219 103.648438 Z M 80.398438 103.828125 C 80.398438 103.640625 80.640625 103.492188 80.941406 103.492188 C 81.238281 103.492188 81.480469 103.640625 81.480469 103.828125 C 81.480469 104.015625 81.238281 104.167969 80.941406 104.167969 C 80.640625 104.167969 80.398438 104.015625 80.398438 103.828125 Z M 87.269531 98.8125 C 87.195312 97.417969 87.308594 96.78125 87.59375 96.800781 C 87.953125 96.824219 87.996094 97.695312 88.230469 98.796875 C 88.460938 99.890625 88.816406 99.847656 88.898438 100.175781 C 88.980469 100.507812 87.464844 100.738281 87.464844 100.738281 C 86.011719 100.925781 84.246094 101.203125 83.976562 101.242188 C 83.976562 101.242188 83.96875 101.234375 83.976562 101.234375 C 84.328125 101.121094 87.335938 100.125 87.269531 98.8125 Z M 87.148438 103.453125 C 87.148438 103.882812 86.886719 104.226562 86.574219 104.226562 C 86.25 104.226562 85.996094 103.882812 85.996094 103.453125 C 85.996094 103.027344 86.257812 102.683594 86.574219 102.683594 C 86.894531 102.683594 87.148438 103.027344 87.148438 103.453125 Z M 84.277344 103.621094 C 84.277344 103.957031 84.046875 104.234375 83.765625 104.234375 C 83.488281 104.234375 83.257812 103.957031 83.257812 103.621094 C 83.257812 103.28125 83.488281 103.003906 83.765625 103.003906 C 84.046875 103.003906 84.277344 103.28125 84.277344 103.621094 Z M 89.003906 103.035156 C 89.003906 102.699219 89.191406 102.421875 89.429688 102.421875 C 89.664062 102.421875 89.859375 102.699219 89.859375 103.035156 C 89.859375 103.371094 89.671875 103.648438 89.429688 103.648438 C 89.191406 103.648438 89.003906 103.371094 89.003906 103.035156 Z M 91.710938 101.992188 C 91.828125 101.78125 92.039062 101.664062 92.167969 101.738281 C 92.296875 101.8125 92.300781 102.046875 92.175781 102.253906 C 92.054688 102.464844 91.84375 102.585938 91.71875 102.511719 C 91.589844 102.441406 91.589844 102.210938 91.710938 101.992188 Z M 105.480469 98.617188 C 105.503906 100.035156 105.277344 101.421875 104.796875 102.75 L 102.988281 107.347656 C 102.691406 108.113281 102.414062 108.898438 102.171875 109.695312 C 101.851562 107.648438 101.25 104.339844 100.328125 100.980469 C 99.105469 96.53125 94.351562 94.261719 92.65625 93.585938 C 92.65625 93.585938 92.65625 93.585938 92.65625 93.578125 C 93.539062 92.984375 94.265625 91.996094 94.328125 90.164062 C 94.34375 89.707031 93.984375 89.324219 93.53125 89.308594 C 93.074219 89.296875 92.691406 89.65625 92.675781 90.105469 C 92.617188 91.882812 91.738281 92.316406 90.773438 92.640625 C 90.058594 92.878906 89.558594 93.425781 89.121094 93.914062 C 88.558594 94.539062 88.183594 94.914062 87.59375 94.957031 C 86.761719 95.015625 86.226562 94.710938 85.546875 94.328125 C 85.125 94.085938 84.691406 93.839844 84.164062 93.675781 C 83.527344 93.472656 82.890625 93.515625 82.265625 93.570312 C 81.382812 93.636719 80.542969 93.699219 79.558594 93.121094 C 78.585938 92.550781 78.457031 91.589844 78.523438 90.871094 C 78.570312 90.421875 78.261719 90 77.8125 89.941406 C 77.347656 89.878906 76.925781 90.210938 76.882812 90.675781 C 76.808594 91.386719 76.824219 93.050781 78.21875 94.191406 C 78.601562 94.546875 79.003906 94.71875 79.035156 95.386719 C 79.074219 96.34375 72.816406 98.183594 70.941406 99.441406 C 69.066406 100.710938 69.105469 103.539062 69.105469 103.539062 C 69.105469 103.539062 69.375 109.664062 69.277344 112.996094 C 69.179688 116.273438 70.273438 121.875 70.3125 122.046875 L 66.179688 120.757812 L 60.121094 117.816406 C 59.828125 117.636719 56.730469 115.726562 54.523438 112.351562 C 52.363281 109.042969 51.15625 106.027344 50.828125 103.132812 C 50.535156 100.566406 50.09375 87.269531 50.070312 86.601562 C 50.078125 86.316406 50.203125 83.113281 51.34375 81.03125 C 51.433594 80.871094 51.523438 80.699219 51.628906 80.511719 C 53.0625 77.925781 55.734375 73.109375 55.507812 68.941406 C 55.28125 64.808594 55.433594 54.929688 55.433594 54.824219 L 55.433594 54.808594 C 55.425781 53.902344 55.726562 51.285156 57.21875 50.078125 C 58.476562 49.058594 61.476562 49.476562 63.667969 49.777344 C 64.636719 49.914062 65.476562 50.03125 66.121094 50.03125 C 67.183594 50.03125 68.773438 49.566406 70.613281 49.027344 C 72.636719 48.433594 74.941406 47.761719 76.289062 47.851562 C 77.332031 47.917969 78.335938 48.285156 79.402344 48.675781 C 80.933594 49.238281 82.515625 49.816406 84.464844 49.636719 C 87.179688 49.378906 91.199219 47.386719 92.550781 46.679688 C 93.871094 47.625 98.109375 50.871094 99.246094 54.464844 C 100.664062 58.949219 102.871094 73.042969 102.890625 73.183594 C 102.90625 73.34375 105.300781 88.449219 105.480469 98.617188 Z M 106.132812 51.710938 C 105.039062 54.210938 102.800781 57.773438 102.03125 58.980469 C 101.609375 56.953125 101.183594 55.15625 100.808594 53.96875 C 99.660156 50.339844 95.984375 47.199219 94.125 45.800781 C 93.609375 45.121094 93.398438 44.503906 93.351562 44.167969 C 93.277344 43.589844 93.292969 40.703125 92.585938 40.972656 C 91.882812 41.242188 91.933594 43.363281 91.035156 44.765625 C 90.703125 45.277344 90.113281 45.847656 89.484375 46.335938 C 88.792969 46.648438 88.019531 46.972656 87.253906 47.25 C 87.382812 46.460938 87.929688 44.511719 88.183594 43.507812 C 88.46875 42.359375 88.53125 40.351562 87.9375 40.3125 C 87.34375 40.273438 86.730469 41.765625 86.632812 43.183594 C 86.535156 44.601562 85.386719 47.453125 84.699219 47.265625 C 84.007812 47.070312 84.464844 42.824219 84.164062 42.703125 C 83.859375 42.59375 83.550781 42.742188 83.324219 43.546875 C 83.09375 44.347656 83.015625 47.453125 82.101562 47.566406 C 81.179688 47.675781 79.6875 45.421875 78.921875 43.851562 C 78.15625 42.285156 77.046875 43.582031 77.234375 45.195312 C 77.429688 46.800781 75.511719 46.230469 73.980469 44.886719 C 72.449219 43.546875 72.179688 44.085938 72.601562 45.726562 C 72.71875 46.191406 72.613281 46.550781 72.398438 46.828125 C 71.65625 47.023438 70.890625 47.25 70.140625 47.46875 C 69.472656 47.664062 68.789062 47.863281 68.167969 48.023438 C 64.71875 48.292969 63.074219 47.609375 59.550781 47.257812 C 55.28125 46.824219 54.367188 47.257812 54.1875 47.640625 C 54.007812 48.023438 54.136719 48.457031 55.078125 48.816406 C 56.023438 49.175781 54.976562 49.835938 53.421875 51.164062 C 51.863281 52.492188 49.515625 53.003906 50.511719 53.796875 C 51.511719 54.59375 53.878906 53.234375 53.878906 53.234375 C 53.625 54.796875 49.921875 58.523438 50.992188 58.90625 C 52.066406 59.289062 53.542969 57.449219 53.542969 57.449219 C 53.339844 58.546875 52.851562 60.382812 51.832031 61.816406 C 50.8125 63.246094 50.910156 64.066406 51.601562 64.011719 C 52.289062 63.960938 53.273438 62.878906 53.273438 62.878906 C 53.796875 63.824219 52.785156 66.050781 51.871094 66.929688 C 50.953125 67.808594 50.339844 68.671875 50.773438 69.246094 C 51.21875 69.824219 52.171875 69.226562 52.785156 68.542969 C 53.316406 67.941406 53.699219 68.09375 53.796875 68.144531 C 53.8125 68.476562 53.820312 68.78125 53.84375 69.066406 C 53.976562 71.535156 52.890625 74.390625 51.757812 76.738281 C 51.136719 77.761719 50.476562 78.890625 49.890625 80.265625 C 49.679688 80.648438 49.5 81.058594 49.34375 81.480469 C 48.121094 84.03125 47.460938 83.992188 46.425781 81.945312 C 45.246094 79.621094 43.3125 76.476562 41.21875 76.175781 C 39.128906 75.871094 37.800781 77.378906 37.492188 78.375 C 37.183594 79.371094 38.003906 83.40625 38.585938 87.050781 C 39.171875 90.703125 40.710938 92.820312 40.171875 93.074219 C 39.636719 93.328125 37.15625 91.261719 36.316406 90.546875 C 35.476562 89.835938 35.390625 89.347656 35.167969 88.65625 C 34.933594 87.96875 32.789062 85.898438 32.460938 85.335938 C 32.128906 84.773438 32.257812 84.59375 33.300781 84.367188 C 34.34375 84.140625 33.886719 83.242188 33.023438 82.5 C 32.160156 81.757812 31.746094 80.585938 31.746094 80.585938 C 31.746094 80.585938 29.578125 74.691406 29.199219 73.410156 C 28.816406 72.136719 29.835938 72.488281 30.066406 71.574219 C 30.300781 70.65625 28.460938 69.96875 27.71875 69.046875 C 26.976562 68.121094 28.132812 68.023438 30.960938 68.226562 C 33.796875 68.429688 31.46875 66.699219 31.46875 66.699219 L 28.761719 64.320312 C 28.761719 64.320312 31.777344 63.523438 28.996094 61.253906 C 26.210938 58.980469 25.957031 57.726562 25.980469 56.730469 C 26.003906 55.734375 27.976562 56.601562 29.707031 56.753906 C 31.441406 56.902344 31.058594 54.808594 28.964844 52.84375 C 26.871094 50.878906 27.234375 50.550781 27.328125 50.296875 C 27.433594 50.039062 29.933594 50.78125 30.90625 50.804688 C 31.875 50.828125 32.488281 50.316406 32.46875 49.679688 C 32.445312 49.042969 29.25 47.40625 29.558594 46.230469 C 29.863281 45.050781 32.753906 47.558594 34.71875 49.085938 C 36.683594 50.617188 38.722656 50.59375 38.878906 50.03125 C 39.039062 49.46875 38.625 49.140625 36.023438 47.761719 C 33.421875 46.378906 33.113281 45.308594 33.113281 45.308594 C 33.113281 45.308594 38.960938 46.402344 39.136719 45.15625 C 39.308594 43.914062 35.917969 44.03125 34.15625 43.726562 C 32.390625 43.417969 31.882812 40.710938 32.113281 39.976562 C 32.347656 39.234375 34.058594 40.613281 34.824219 40.359375 C 35.585938 40.101562 35.28125 38.648438 34.925781 38.109375 C 34.566406 37.574219 34.417969 36.601562 34.492188 34.867188 C 34.566406 33.136719 35.160156 33.976562 35.949219 34.558594 C 36.742188 35.144531 37.328125 34.410156 37.636719 33.71875 C 37.941406 33.03125 38.65625 33.359375 38.585938 34.386719 C 38.519531 35.414062 38.863281 36.683594 39.523438 36.710938 C 40.191406 36.734375 40.238281 35.871094 40.214844 34.980469 C 40.191406 34.085938 39.757812 30.945312 39.164062 30.128906 C 38.578125 29.308594 38.21875 28.132812 39.164062 28.289062 C 40.109375 28.441406 41.96875 30.96875 43.402344 30.105469 C 44.835938 29.234375 41.925781 26.398438 41.746094 25.613281 C 41.566406 24.816406 42.710938 25.230469 44.273438 26.175781 C 45.832031 27.121094 47.820312 29.0625 48.710938 28.46875 C 49.605469 27.886719 47.617188 26.578125 47.4375 25.890625 C 47.257812 25.199219 47.566406 23.339844 47.566406 23.339844 C 47.566406 23.339844 50.167969 28.011719 51.113281 27.78125 C 52.058594 27.546875 51.90625 22.417969 52.746094 22.46875 C 53.585938 22.523438 54 23.976562 54.96875 23.746094 C 55.933594 23.511719 55.328125 21.238281 55.734375 20.761719 C 56.136719 20.273438 57.773438 21.832031 57.773438 21.832031 C 57.773438 21.832031 60.097656 23.976562 60.683594 24.234375 C 61.265625 24.488281 62.011719 24.5625 62.210938 23.210938 C 62.414062 21.863281 61.777344 20.503906 61.246094 19.972656 C 60.710938 19.441406 60.808594 19.078125 61.703125 19.304688 C 62.59375 19.539062 65.96875 22.394531 66.808594 22.109375 C 67.648438 21.832031 67.371094 19.453125 67.988281 19.507812 C 68.601562 19.558594 69.441406 20.960938 70.566406 20.78125 C 71.691406 20.601562 70.441406 18.359375 71.40625 18.328125 C 72.375 18.308594 74.296875 20.242188 75.496094 21.292969 C 76.695312 22.34375 77.257812 22.441406 77.714844 22.132812 C 78.171875 21.824219 77.664062 20.265625 78.40625 20.316406 C 79.148438 20.371094 80.113281 22.359375 80.804688 22.359375 C 81.496094 22.359375 81.621094 21.824219 82.132812 21.847656 C 82.640625 21.871094 82.972656 22.898438 82.972656 22.898438 C 82.972656 22.898438 84.023438 25.191406 85.605469 25.09375 C 87.1875 24.988281 88.71875 23.664062 89.691406 23.257812 C 90.660156 22.851562 90.148438 24.382812 90.148438 24.382812 C 90.148438 24.382812 89.617188 27.523438 90.585938 27.601562 C 91.550781 27.675781 91.933594 26.675781 92.601562 26.421875 C 93.269531 26.167969 93.367188 26.601562 93.367188 27.261719 C 93.367188 27.929688 94.386719 29.765625 94.949219 29.640625 C 95.511719 29.511719 96.253906 27.773438 96.683594 28.164062 C 97.109375 28.550781 98.59375 31.941406 99.335938 32.199219 C 100.078125 32.453125 99.644531 31.53125 100.484375 31.738281 C 101.324219 31.941406 102.398438 34.546875 102.683594 36.261719 C 102.960938 37.972656 103.605469 38.894531 104.136719 39.734375 C 104.671875 40.574219 104.773438 42.210938 104.773438 42.210938 C 104.773438 42.210938 104.878906 47.085938 104.414062 49.359375 C 104.144531 50.699219 104.925781 50.953125 105.609375 50.941406 C 106.019531 50.910156 106.296875 51.328125 106.132812 51.710938 Z M 106.132812 51.710938 "/>
<path style=" stroke:none;fill-rule:nonzero;fill:rgb(0%,0%,0%);fill-opacity:1;" d="M 98.804688 36.945312 C 98.039062 36.710938 97.800781 37.941406 97.800781 37.941406 C 97.800781 37.941406 97.566406 40.011719 96.691406 40.621094 C 95.8125 41.234375 95.25 42.472656 95.378906 42.816406 C 95.503906 43.164062 96.523438 42.675781 97.140625 43.058594 C 97.753906 43.441406 98.378906 43.734375 98.722656 43.171875 C 99.066406 42.609375 99.464844 41.773438 99.515625 40.566406 C 99.5625 39.351562 99.570312 37.171875 98.804688 36.945312 Z M 98.804688 36.945312 "/>
<path style=" stroke:none;fill-rule:nonzero;fill:rgb(0%,0%,0%);fill-opacity:1;" d="M 70.222656 33.691406 C 70.296875 31.875 70.148438 29.941406 69.226562 29.910156 C 68.300781 29.886719 66.734375 31.851562 66.734375 31.851562 L 65.625 31.851562 C 65.210938 31.851562 64.816406 32.011719 64.515625 32.296875 C 61.914062 34.808594 62.574219 37.449219 62.789062 39.511719 C 63.023438 41.691406 64.550781 43.492188 65.121094 42.839844 C 65.699219 42.1875 64.777344 41.113281 64.46875 39.890625 C 64.164062 38.671875 63.9375 35.023438 64.664062 34.835938 C 65.390625 34.640625 65.28125 36.636719 66.074219 38.363281 C 66.871094 40.085938 68.347656 40.816406 69.148438 40.507812 C 69.953125 40.199219 69.148438 39.472656 69.148438 39.472656 C 69.148438 39.472656 67.964844 38.746094 67.199219 36.40625 C 66.59375 34.550781 67.914062 32.949219 68.484375 32.355469 C 68.578125 32.257812 68.746094 32.316406 68.753906 32.453125 C 68.78125 33.007812 68.84375 34.132812 68.902344 35.03125 C 68.976562 36.285156 70.207031 37.867188 70.816406 37.410156 C 71.429688 36.953125 70.816406 36.210938 70.816406 36.210938 C 70.816406 36.210938 70.148438 35.496094 70.222656 33.691406 Z M 70.222656 33.691406 "/>
<path style=" stroke:none;fill-rule:nonzero;fill:rgb(0%,0%,0%);fill-opacity:1;" d="M 58.933594 35.949219 C 58.84375 35.648438 58.589844 35.429688 58.273438 35.378906 C 57.96875 35.324219 57.652344 35.460938 57.472656 35.714844 C 55.898438 37.925781 56.144531 39.832031 56.625 41.039062 C 57.128906 42.308594 57.984375 43.050781 58.074219 43.132812 C 58.230469 43.261719 58.417969 43.328125 58.605469 43.328125 C 58.835938 43.328125 59.070312 43.230469 59.234375 43.035156 C 59.527344 42.691406 59.484375 42.164062 59.136719 41.871094 C 59.128906 41.863281 58.484375 41.300781 58.132812 40.371094 C 57.871094 39.675781 57.839844 38.953125 58.042969 38.21875 C 58.484375 39.210938 59.136719 40.433594 59.976562 41.363281 C 60.285156 41.699219 60.800781 41.730469 61.140625 41.421875 C 61.476562 41.113281 61.507812 40.597656 61.199219 40.261719 C 59.796875 38.683594 58.941406 35.96875 58.933594 35.949219 Z M 58.933594 35.949219 "/>
<path style=" stroke:none;fill-rule:nonzero;fill:rgb(0%,0%,0%);fill-opacity:1;" d="M 48.464844 30.726562 C 48.171875 30.644531 47.859375 30.734375 47.648438 30.953125 C 47.4375 31.175781 47.371094 31.492188 47.46875 31.785156 C 47.941406 33.1875 48.628906 35.773438 48.433594 36.75 C 48.34375 37.199219 48.636719 37.628906 49.085938 37.71875 C 49.140625 37.726562 49.191406 37.734375 49.246094 37.734375 C 49.636719 37.734375 49.980469 37.460938 50.054688 37.066406 C 50.25 36.089844 49.933594 34.484375 49.605469 33.203125 C 50.566406 33.996094 51.226562 34.996094 51.234375 35.011719 C 51.480469 35.390625 51.988281 35.496094 52.371094 35.25 C 52.753906 35.003906 52.859375 34.492188 52.613281 34.109375 C 52.539062 34.003906 50.804688 31.378906 48.464844 30.726562 Z M 48.464844 30.726562 "/>
<path style=" stroke:none;fill-rule:nonzero;fill:rgb(0%,0%,0%);fill-opacity:1;" d="M 50.167969 40.304688 C 48.929688 38.550781 47.101562 36.390625 45.433594 36.097656 C 45.1875 36.050781 44.941406 36.128906 44.753906 36.285156 C 44.566406 36.449219 44.460938 36.683594 44.46875 36.929688 C 44.503906 38.0625 44.527344 39.277344 44.535156 40.191406 C 43.914062 39.765625 43.003906 39.164062 41.683594 38.308594 C 41.378906 38.113281 40.980469 38.136719 40.703125 38.371094 C 40.425781 38.601562 40.335938 38.992188 40.476562 39.328125 C 40.898438 40.296875 42.023438 42.929688 42.210938 43.507812 C 42.75 45.171875 45.636719 48.164062 45.96875 48.503906 C 46.132812 48.667969 46.34375 48.75 46.558594 48.75 C 46.769531 48.75 46.972656 48.675781 47.136719 48.515625 C 47.460938 48.203125 47.46875 47.675781 47.152344 47.347656 C 46.019531 46.183594 44.101562 43.980469 43.785156 42.996094 C 43.679688 42.683594 43.386719 41.960938 43.066406 41.191406 C 43.875 41.730469 44.511719 42.164062 44.683594 42.316406 C 44.902344 42.5625 45.238281 42.660156 45.5625 42.554688 C 46.125 42.375 46.164062 41.8125 46.171875 41.601562 C 46.175781 41.460938 46.183594 41.257812 46.183594 41.003906 C 46.191406 40.589844 46.183594 40.019531 46.175781 39.308594 C 46.171875 38.949219 46.164062 38.578125 46.15625 38.25 C 46.925781 38.851562 47.886719 39.914062 48.824219 41.25 C 48.855469 41.296875 48.878906 41.324219 48.886719 41.332031 C 49.15625 41.699219 49.679688 41.773438 50.039062 41.496094 C 50.40625 41.226562 50.484375 40.710938 50.203125 40.34375 C 50.199219 40.351562 50.191406 40.335938 50.167969 40.304688 Z M 50.167969 40.304688 "/>
<path style=" stroke:none;fill-rule:nonzero;fill:rgb(0%,0%,0%);fill-opacity:1;" d="M 43.53125 58.941406 C 41.941406 58.539062 42.039062 57.890625 42.050781 57.253906 C 42.066406 56.617188 41.015625 55.859375 39.636719 54.976562 C 38.257812 54.089844 41.648438 54.210938 43.449219 53.671875 C 45.246094 53.128906 45.210938 51.71875 45.210938 51.71875 C 44.136719 52.386719 39.007812 52.296875 37.453125 52.558594 C 35.902344 52.824219 36.628906 54.324219 37.222656 54.742188 C 37.816406 55.164062 38.0625 55.851562 38.332031 57.121094 C 38.601562 58.386719 41.183594 59.761719 42.683594 60.414062 C 44.175781 61.066406 46.933594 60.78125 46.726562 60.089844 C 46.515625 59.40625 45.121094 59.347656 43.53125 58.941406 Z M 43.53125 58.941406 "/>
</g>
</svg>
